Coordinates
version=1
nRows=60
nColumns=12
inDegrees=yes

Units are S.I. units (second, meters, Newtons, ...)
Angles are in degrees

endheader
time	SC_y	SC_z	SC_x	AC_y	AC_z	AC_x	GH_y	GH_z	GH_yy	EL_x	PS_y
       0.0               -55.0          37.65          57.85          67.37         -19.55          15.58         -27.77          4.647          100.7          117.5          65.19
   0.04052               -55.0          37.65          57.85          67.37         -19.55          15.58         -27.78          4.647          100.7          117.5          65.18
   0.08104              -54.99          37.65          57.84          67.37         -19.55          15.58         -27.79          4.646          100.7          117.5          65.17
    0.1216              -54.99          37.64          57.84          67.37         -19.54          15.58         -27.81          4.646          100.7          117.5          65.17
    0.1621              -54.98          37.64          57.83          67.37         -19.54          15.58         -27.82          4.645          100.7          117.5          65.16
    0.2026              -54.97          37.63          57.83          67.37         -19.54          15.57         -27.84          4.645          100.7          117.5          65.15
    0.2431              -54.97          37.63          57.82          67.37         -19.53          15.57         -27.85          4.644          100.7          117.5          65.14
    0.2836              -54.96          37.62          57.82          67.37         -19.53          15.57         -27.87          4.643          100.7          117.5          65.13
    0.3241              -54.95          37.62          57.81          67.36         -19.53          15.57         -27.89          4.643          100.7          117.5          65.11
    0.3647              -54.94          37.61           57.8          67.36         -19.52          15.57         -27.91          4.642          100.7          117.5           65.1
    0.4052              -54.93          37.61           57.8          67.36         -19.52          15.57         -27.93          4.641          100.7          117.5          65.09
    0.4457              -54.92           37.6          57.79          67.36         -19.51          15.57         -27.96           4.64          100.7          117.5          65.07
    0.4862              -54.91           37.6          57.78          67.36         -19.51          15.56         -27.98          4.639          100.7          117.5          65.06
    0.5267               -54.9          37.59          57.77          67.36          -19.5          15.56         -28.01          4.638          100.7          117.5          65.04
    0.5673              -54.89          37.58          57.76          67.36         -19.49          15.56         -28.04          4.637          100.7          117.5          65.02
    0.6078              -54.87          37.57          57.75          67.36         -19.49          15.56         -28.08          4.636          100.7          117.5           65.0
    0.6483              -54.86          37.56          57.74          67.36         -19.48          15.56         -28.11          4.635          100.8          117.5          64.98
    0.6888              -54.84          37.56          57.72          67.36         -19.47          15.55         -28.15          4.633          100.8          117.5          64.95
    0.7293              -54.83          37.54          57.71          67.36         -19.46          15.55         -28.19          4.632          100.8          117.5          64.93
    0.7698              -54.81          37.53          57.69          67.36         -19.45          15.55         -28.24           4.63          100.8          117.5           64.9
    0.8104              -54.78          37.52          57.67          67.36         -19.44          15.54         -28.29          4.628          100.8          117.6          64.87
    0.8509              -54.76          37.51          57.66          67.36         -19.42          15.54         -28.35          4.626          100.8          117.6          64.83
    0.8914              -54.74          37.49          57.63          67.36         -19.41          15.54         -28.41          4.624          100.8          117.6          64.79
    0.9319              -54.71          37.47          57.61          67.36          -19.4          15.53         -28.48          4.621          100.8          117.6          64.75
    0.9724              -54.67          37.45          57.59          67.36         -19.38          15.53         -28.55          4.618          100.9          117.6           64.7
     1.013              -54.64          37.43          57.56          67.36         -19.36          15.52         -28.64          4.615          100.9          117.6          64.65
     1.053               -54.6          37.41          57.52          67.36         -19.34          15.51         -28.73          4.612          100.9          117.6          64.59
     1.094              -54.55          37.38          57.49          67.35         -19.32          15.51         -28.84          4.608          100.9          117.6          64.52
     1.135               -54.5          37.35          57.45          67.35         -19.29           15.5         -28.96          4.603          100.9          117.6          64.45
     1.175              -54.44          37.32           57.4          67.35         -19.26          15.49          -29.1          4.598          101.0          117.6          64.36
     1.216              -54.38          37.28          57.35          67.35         -19.22          15.48         -29.26          4.592          101.0          117.7          64.26
     1.256               -54.3          37.23          57.28          67.35         -19.18          15.47         -29.44          4.586          101.1          117.7          64.15
     1.297              -54.22          37.18          57.21          67.34         -19.14          15.45         -29.65          4.578          101.1          117.7          64.02
     1.337              -54.11          37.12          57.13          67.34         -19.08          15.44         -29.89          4.569          101.2          117.7          63.87
     1.378              -53.99          37.05          57.03          67.34         -19.02          15.42         -30.17          4.559          101.2          117.8          63.69
     1.418              -53.85          36.96          56.92          67.33         -18.95           15.4         -30.51          4.546          101.3          117.8          63.49
     1.459              -53.69          36.86          56.78          67.33         -18.86          15.37         -30.91          4.532          101.4          117.9          63.24
     1.499              -53.49          36.74          56.62          67.32         -18.75          15.34         -31.38          4.514          101.5          117.9          62.94
      1.54              -53.25           36.6          56.43          67.32         -18.62           15.3         -31.96          4.493          101.6          118.0          62.58
      1.58              -52.95          36.42          56.19          67.31         -18.47          15.25         -32.66          4.467          101.8          118.1          62.15
     1.621              -52.59           36.2          55.89           67.3         -18.28          15.19         -33.53          4.435          102.0          118.2          61.61
     1.661              -52.13          35.93          55.52          67.29         -18.03          15.12         -34.61          4.396          102.2          118.3          60.93
     1.702              -51.56          35.59          55.06          67.27         -17.73          15.03         -35.98          4.346          102.5          118.4          60.09
     1.742              -50.83          35.15          54.47          67.25         -17.35          14.91         -37.71          4.282          102.9          118.6          59.01
     1.783               -49.9          34.59          53.71          67.23         -16.86          14.77         -39.93            4.2          103.4          118.9          57.63
     1.823              -48.71          33.88          52.74          67.19         -16.22          14.58         -42.78          4.096          104.0          119.2          55.85
     1.864              -47.18          32.96           51.5          67.15         -15.42          14.33         -46.42          3.962          104.9          119.6          53.59
     1.904              -45.26          31.81          49.95           67.1          -14.4          14.03          -51.0          3.794          105.9          120.1          50.75
     1.945              -42.92          30.41          48.05          67.04         -13.16          13.65         -56.58          3.589          107.1          120.8          47.28
     1.985              -40.21          28.78          45.85          66.96         -11.73          13.22         -63.04          3.352          108.6          121.5          43.26
     2.026              -37.28          27.02          43.47          66.88         -10.18          12.76         -70.04          3.094          110.2          122.3          38.91
     2.066              -34.34          25.26          41.08           66.8         -8.626          12.29         -77.04          2.837          111.7          123.1          34.56
     2.107              -31.63          23.64          38.88          66.73         -7.192          11.86         -83.51            2.6          113.2          123.8          30.54
     2.147              -29.29          22.23          36.99          66.66         -5.956          11.48         -89.09          2.395          114.4          124.5          27.07
     2.188              -27.37          21.08          35.43          66.61         -4.941          11.18         -93.66          2.227          115.5          125.0          24.23
     2.228              -25.85          20.17          34.19          66.57         -4.133          10.93          -97.3          2.093          116.3          125.4          21.96
     2.269              -24.65          19.45          33.22          66.54         -3.502          10.74         -100.2          1.989          116.9          125.7          20.19
      2.31              -23.72          18.89          32.46          66.51         -3.009           10.6         -102.4          1.907          117.4          126.0          18.81
      2.35               -23.0          18.46          31.87          66.49         -2.624          10.48         -104.1          1.843          117.8          126.2          17.73
     2.391              -22.42          18.11          31.41          66.48         -2.322          10.39         -105.5          1.793          118.1          126.3          16.89
